# xmcd CD database file
#
# Track frame offsets:
#	150
#	19282
#	37445
#	55245
#	73245
#	93775
#	108070
#	123657
#	135500
#	152270
#
# Disc length: 2512 seconds
#
# Revision: 3
# Processed by: cddbd v1.4PL0 Copyright (c) Steve Scherf et al.
# Submitted via: CDex 1.50beta10
#
DISCID=8409ce0a
DTITLE=Janis Joplin - Janis Joplin's Greatest Hits
DYEAR=1973
DGENRE=Rock
TTITLE0=Big Brother and the Holding Company - Piece of my Heart
TTITLE1=Big Brother and the Holding Company - Summertime
TTITLE2=Kozmic Blues Band - Try (Just a little Bit Harder)
TTITLE3=Full Tilt Boogie Band - Cry Baby
TTITLE4=Full Tilt Boogie Band - Me and Bobby McGee
TTITLE5=Big Brother and the Holding Company - Down on Me
TTITLE6=Full Tilt Boogie Band - Get it While You Can
TTITLE7=Big Brother and the Holding Company - Bye, Bye Baby
TTITLE8=Full Tilt Boogie Band - Move Over
TTITLE9=Full Tilt Boogie Band - Ball and Chain
EXTD=YEAR: 1973
EXTT0=
EXTT1=
EXTT2=
EXTT3=
EXTT4=
EXTT5=
EXTT6=
EXTT7=
EXTT8=
EXTT9=
PLAYORDER=
